<svg id="Layer_1" data-name="Layer 1" xmlns="http://www.w3.org/2000/svg" viewBox="0 0 500 30"><defs><style>.cls-1{fill:#fff;}.cls-2{fill:none;stroke:#fff;stroke-miterlimit:10;}</style></defs><title>assets</title><path id="wordmark" class="cls-1" d="M298.63,18.05a4.08,4.08,0,0,1-4.22,4,4,4,0,0,1-4.23-4V10.32h-1.3v7.8a5.54,5.54,0,0,0,11.05,0v-7.8h-1.3Zm13.85-7.73h-4.1v13h4.1c3.77,0,6.3-2.47,6.3-6.5S316.25,10.32,312.48,10.32ZM312.35,22h-2.67V11.62h2.66a4.93,4.93,0,0,1,5.14,5.2,4.8,4.8,0,0,1-5.14,5.2Zm36.33,0a5.22,5.22,0,0,1-5.13-5.46,5.06,5.06,0,0,1,5.13-5.26,6.08,6.08,0,0,1,3.83,1.36l.65-.91a6.59,6.59,0,0,0-10.92,4.81,6.52,6.52,0,0,0,6.44,6.76,6.41,6.41,0,0,0,4.81-2.14l-.72-.84a6.14,6.14,0,0,1-4.1,1.69Zm13,1.3H363v-13h-1.3Zm8.45-11.7h4.55v11.7H376V11.62h4.55v-1.3h-10.4Zm25.48-1.3-4,5.85-4.1-5.85h-1.43l4.88,7.21v5.78h1.3V17.53L397,10.32Zm-65.85,0-5.13,13H326l1.36-3.7,5.72-1.17,1.82,4.87h1.37l-5.14-13h-1.37Zm-1.82,7.86,2.54-6.11h.06l2.15,5.2Z"/><path id="mark" class="cls-1" d="M259.18,3.17l-8.65,5V19.61A9.51,9.51,0,0,0,260,29.16a10,10,0,0,0,4.81-1.23l7-4a8.72,8.72,0,0,0,4.68-7.73v-12l-1.69-1-7.41,4V19.68a12.62,12.62,0,0,1-.13,1.56,9.2,9.2,0,0,1-.46,1.43l-.19.39a9.27,9.27,0,0,1-2.73-1.17A6.51,6.51,0,0,1,262,20a7.92,7.92,0,0,1-1.17-3.77V4.14Zm4.22,23.52a12,12,0,0,1-1.62.58,5.82,5.82,0,0,1-1.5.13,6.41,6.41,0,0,1-1.56-.19,9.21,9.21,0,0,1-1.43-.45A8.33,8.33,0,0,1,256,26a7,7,0,0,1-2.08-2.14,8.32,8.32,0,0,1-.72-1.3,10,10,0,0,1-.46-1.49,2.92,2.92,0,0,1-.26-1.49V9.15l6.5-4v11a8.83,8.83,0,0,0,7,8.51,1.75,1.75,0,0,1-.46.52,6.22,6.22,0,0,1-2.08,1.49Zm11.05-9.1a7.59,7.59,0,0,1-.39,1.3,10.51,10.51,0,0,1-.65,1.17A6.77,6.77,0,0,1,271.33,22a8.89,8.89,0,0,1-2.6.91,9,9,0,0,0,.65-3.25V8.17l5.2-3v11A5.1,5.1,0,0,1,274.45,17.6Z"/><polygon class="cls-1" points="53.34 3.21 51.7 3.21 50.49 4.65 49.01 6.41 47.53 4.65 46.32 3.21 44.69 3.21 44.69 3.21 44.69 11.86 46.13 11.86 46.13 5.22 49.01 8.65 51.89 5.22 51.89 11.86 53.33 11.86 53.34 3.21"/><polygon class="cls-1" points="43.24 3.2 36.04 3.2 36.04 4.64 38.92 4.64 38.92 11.85 40.36 11.85 40.36 4.64 43.24 4.64 43.24 3.2"/><path class="cls-1" d="M18.84,3.21v13a7.21,7.21,0,1,0,2.79,5.69V3.21ZM14.41,26.27a4.32,4.32,0,1,1,4.32-4.32A4.32,4.32,0,0,1,14.41,26.27Z"/><rect class="cls-1" x="27.39" y="3.21" width="1.44" height="25.95"/><rect class="cls-1" y="3.21" width="1.44" height="25.95"/><rect class="cls-1" x="11.1" y="20.26" width="6.73" height="0.24"/><polygon class="cls-1" points="135.94 3.17 133.91 3.17 130.3 6.77 129.88 6.77 129.88 3.17 128.44 3.17 128.44 11.82 129.88 11.82 129.88 8.21 130.3 8.21 133.91 11.82 135.94 11.82 131.62 7.49 135.94 3.17"/><path class="cls-1" d="M98.14,3.18a4.33,4.33,0,1,0,4.33,4.33A4.33,4.33,0,0,0,98.14,3.18Zm0,7.21A2.88,2.88,0,1,1,101,7.5,2.88,2.88,0,0,1,98.14,10.39Z"/><rect class="cls-1" x="114.02" y="3.18" width="1.44" height="8.65"/><rect class="cls-1" x="125.53" y="3.17" width="1.44" height="8.65"/><path class="cls-1" d="M93.1,7.5a4.33,4.33,0,0,0-4.33-4.33h-3.6v8.65h3.61A4.33,4.33,0,0,0,93.1,7.5Zm-4.33,2.88H86.6V4.62h2.18a2.88,2.88,0,0,1,0,5.77Z"/><polygon class="cls-1" points="122.67 3.17 122.67 8.95 117.82 3.17 116.9 3.17 116.9 11.82 118.34 11.82 118.34 6.04 123.19 11.82 124.11 11.82 124.11 3.17 122.67 3.17"/><polygon class="cls-1" points="112.57 3.18 110.94 3.18 109.73 4.62 108.25 6.38 106.77 4.62 105.56 3.18 103.92 3.18 103.92 3.18 103.92 11.83 105.36 11.83 105.36 5.19 108.25 8.63 111.13 5.19 111.13 11.83 112.57 11.83 112.57 3.18"/><polygon class="cls-1" points="144.18 21.97 144.18 20.53 139.87 20.53 139.87 20.53 138.43 20.53 138.43 29.17 138.43 29.17 138.43 29.17 144.18 29.17 144.18 27.73 139.87 27.73 139.87 25.57 142.75 25.57 142.75 24.13 139.87 24.13 139.87 21.97 144.18 21.97"/><polygon class="cls-1" points="103.88 21.95 103.88 20.52 99.56 20.52 99.56 20.52 98.12 20.52 98.12 29.15 98.12 29.15 98.12 29.15 103.88 29.15 103.88 27.71 99.56 27.71 99.56 25.55 102.44 25.55 102.44 24.11 99.56 24.11 99.56 21.95 103.88 21.95"/><polygon class="cls-1" points="92.66 20.52 90.63 20.52 87.03 24.11 86.61 24.11 86.61 20.52 85.17 20.52 85.17 29.15 86.61 29.15 86.61 25.55 87.03 25.55 90.63 29.15 92.66 29.15 88.34 24.83 92.66 20.52"/><polygon class="cls-1" points="136.99 20.53 129.79 20.53 129.79 21.97 135.25 21.97 129.8 27.42 129.79 29.17 136.99 29.17 136.99 27.73 131.53 27.73 136.99 22.27 136.99 20.53"/><rect class="cls-1" x="94.52" y="20.52" width="1.44" height="8.63"/><polygon class="cls-1" points="172.53 20.52 170.5 20.52 166.9 24.12 166.48 24.12 166.48 20.52 165.04 20.52 165.04 29.16 166.48 29.16 166.48 25.56 166.9 25.56 170.5 29.16 172.53 29.16 168.21 24.84 172.53 20.52"/><rect class="cls-1" x="174.41" y="20.5" width="1.44" height="8.63"/><path class="cls-1" d="M109.64,20.52h-4.32v8.64h1.44V26.28h2.88a2.88,2.88,0,0,0,0-5.76Zm0,4.32h-2.88V22h2.88a1.44,1.44,0,0,1,0,2.88Z"/><path class="cls-1" d="M120.44,25.47V20.52H119v5a2.16,2.16,0,1,1-4.32,0v-5h-1.44v5h0a3.6,3.6,0,1,0,7.2,0Z"/><path class="cls-1" d="M124.81,29.17c-1.83,0-3-.61-3.58-1.85l1.3-.61c.22.48.68,1,2.28,1,.35,0,2.11-.06,2.11-1.14,0-.49-.16-.94-2.07-1.15-1-.1-3.39-.34-3.39-2.49,0-1.44,1.38-2.41,3.43-2.42s3,.82,3.37,1.51l-1.24.73a2.43,2.43,0,0,0-2.13-.81c-.8,0-2,.27-2,1,0,.41.16.86,2.1,1.05,1,.11,3.36.36,3.36,2.58C128.35,28.15,127,29.17,124.81,29.17Z"/><path class="cls-1" d="M160,29.17c-1.83,0-3-.61-3.58-1.85l1.3-.61c.22.48.68,1,2.28,1,.35,0,2.11-.06,2.11-1.14,0-.49-.16-.94-2.07-1.15-1-.1-3.39-.34-3.39-2.49,0-1.44,1.38-2.41,3.43-2.42s3,.82,3.37,1.51l-1.24.73a2.43,2.43,0,0,0-2.13-.81c-.8,0-2,.27-2,1,0,.41.16.86,2.1,1.05,1,.11,3.36.36,3.36,2.58C163.58,28.15,162.19,29.17,160,29.17Z"/><polygon class="cls-1" points="154.72 20.53 152.82 25.74 150.93 20.53 150.4 20.53 148.5 25.74 146.61 20.53 145.16 20.53 148.3 29.17 148.7 29.17 150.66 23.78 152.62 29.17 153.02 29.17 156.16 20.53 154.72 20.53"/><rect class="cls-1" x="59.18" y="15.44" width="17.32" height="1.44"/><path class="cls-1" d="M448.33,1.68a4.46,4.46,0,0,1,4.41,4.5,4.42,4.42,0,1,1-8.83,0,4.46,4.46,0,0,1,4.41-4.5m0-1.5a5.94,5.94,0,0,0-5.89,6,5.89,5.89,0,1,0,11.77,0,5.94,5.94,0,0,0-5.89-6Z"/><path class="cls-1" d="M448.33,7.68a1.5,1.5,0,0,1,0-3,1.45,1.45,0,0,1,1,.44l1-1.06a2.91,2.91,0,0,0-2.08-.88,3,3,0,0,0,0,6,2.91,2.91,0,0,0,2.08-.88l-1-1.06A1.45,1.45,0,0,1,448.33,7.68Z"/><polygon class="cls-1" points="466.01 1.68 464.34 1.68 463.11 3.18 461.6 5.01 460.09 3.18 458.85 1.68 457.18 1.68 457.18 1.68 457.18 10.68 458.65 10.68 458.65 3.77 461.6 7.35 464.54 3.77 464.54 10.68 466.01 10.68 466.01 1.68"/><polygon class="cls-1" points="476.31 1.68 474.64 1.68 473.41 3.18 471.9 5.01 470.39 3.18 469.15 1.68 467.48 1.68 467.48 1.68 467.48 10.68 468.95 10.68 468.95 3.77 471.9 7.35 474.84 3.77 474.84 10.68 476.31 10.68 476.31 1.68"/><polygon class="cls-1" points="481.53 6.17 484.08 1.68 482.47 1.68 480.73 4.76 478.98 1.68 477.38 1.68 479.92 6.17 477.37 10.68 478.98 10.68 480.73 7.59 482.48 10.68 484.08 10.68 481.53 6.17"/><polygon class="cls-1" points="490.02 1.68 488.08 7.11 486.15 1.68 484.67 1.68 487.34 9.18 487.88 10.68 488.29 10.68 488.82 9.18 491.5 1.68 490.02 1.68"/><rect class="cls-1" x="492.5" y="1.68" width="1.47" height="9"/><rect class="cls-1" x="495.44" y="1.68" width="1.47" height="9"/><rect class="cls-1" x="498.38" y="1.68" width="1.47" height="9"/><rect class="cls-1" x="425.27" y="3.18" width="1.42" height="25.99"/><line class="cls-2" x1="205.32" y1="6.17" x2="225.09" y2="26.17"/><line class="cls-2" x1="225.32" y1="6.17" x2="205.32" y2="26.17"/></svg>