<svg id="Layer_1" data-name="Layer 1" xmlns="http://www.w3.org/2000/svg" viewBox="0 0 240 30"><defs><style>.cls-1{fill:#fff;}</style></defs><title>assets</title><rect class="cls-1" x="5" y="6.17" width="5" height="5" rx="1" ry="1"/><rect class="cls-1" x="10" y="6.17" width="5" height="5" rx="1" ry="1"/><rect class="cls-1" x="10" y="11.17" width="5" height="5" rx="1" ry="1"/><rect class="cls-1" x="5" y="16.17" width="5" height="5" rx="1" ry="1"/><rect class="cls-1" x="20" y="16.17" width="5" height="5" rx="1" ry="1"/><rect class="cls-1" x="20" y="11.17" width="5" height="5" rx="1" ry="1"/><rect class="cls-1" x="20" y="21.17" width="5" height="5" rx="1" ry="1"/><rect class="cls-1" x="70" y="16.17" width="5" height="5" rx="1" ry="1"/><rect class="cls-1" x="70" y="11.17" width="5" height="5" rx="1" ry="1"/><rect class="cls-1" x="70" y="6.17" width="5" height="5" rx="1" ry="1"/><rect class="cls-1" x="75" y="21.17" width="5" height="5" rx="1" ry="1"/><rect class="cls-1" x="125" y="16.17" width="5" height="5" rx="1" ry="1"/><rect class="cls-1" x="125" y="11.17" width="5" height="5" rx="1" ry="1"/><rect class="cls-1" x="130" y="11.17" width="5" height="5" rx="1" ry="1"/><rect class="cls-1" x="125" y="6.17" width="5" height="5" rx="1" ry="1"/><rect class="cls-1" x="130" y="21.17" width="5" height="5" rx="1" ry="1"/><rect class="cls-1" x="35" y="16.17" width="5" height="5" rx="1" ry="1"/><rect class="cls-1" x="30" y="11.17" width="5" height="5" rx="1" ry="1"/><rect class="cls-1" x="30" y="21.17" width="5" height="5" rx="1" ry="1"/><rect class="cls-1" x="40" y="11.17" width="5" height="5" rx="1" ry="1"/><rect class="cls-1" x="40" y="21.17" width="5" height="5" rx="1" ry="1"/><rect class="cls-1" x="195" y="16.17" width="5" height="5" rx="1" ry="1"/><rect class="cls-1" x="190" y="11.17" width="5" height="5" rx="1" ry="1"/><rect class="cls-1" x="190" y="6.17" width="5" height="5" rx="1" ry="1"/><rect class="cls-1" x="190" y="16.17" width="5" height="5" rx="1" ry="1"/><rect class="cls-1" x="190" y="21.17" width="5" height="5" rx="1" ry="1"/><rect class="cls-1" x="200" y="11.17" width="5" height="5" rx="1" ry="1"/><rect class="cls-1" x="200" y="21.17" width="5" height="5" rx="1" ry="1"/><rect class="cls-1" x="50" y="16.17" width="5" height="5" rx="1" ry="1"/><rect class="cls-1" x="55" y="11.17" width="5" height="5" rx="1" ry="1"/><rect class="cls-1" x="60" y="11.17" width="5" height="5" rx="1" ry="1"/><rect class="cls-1" x="55" y="21.17" width="5" height="5" rx="1" ry="1"/><rect class="cls-1" x="60" y="21.17" width="5" height="5" rx="1" ry="1"/><rect class="cls-1" x="210" y="16.17" width="5" height="5" rx="1" ry="1"/><rect class="cls-1" x="215" y="11.17" width="5" height="5" rx="1" ry="1"/><rect class="cls-1" x="220" y="11.17" width="5" height="5" rx="1" ry="1"/><rect class="cls-1" x="215" y="21.17" width="5" height="5" rx="1" ry="1"/><rect class="cls-1" x="220" y="21.17" width="5" height="5" rx="1" ry="1"/><rect class="cls-1" x="90" y="11.17" width="5" height="5" rx="1" ry="1"/><rect class="cls-1" x="95" y="6.17" width="5" height="5" rx="1" ry="1"/><rect class="cls-1" x="95" y="16.17" width="5" height="5" rx="1" ry="1"/><rect class="cls-1" x="115" y="11.17" width="5" height="5" rx="1" ry="1"/><rect class="cls-1" x="100" y="11.17" width="5" height="5" rx="1" ry="1"/><rect class="cls-1" x="90" y="16.17" width="5" height="5" rx="1" ry="1"/><rect class="cls-1" x="100" y="16.17" width="5" height="5" rx="1" ry="1"/><rect class="cls-1" x="170" y="16.17" width="5" height="5" rx="1" ry="1"/><rect class="cls-1" x="175" y="11.17" width="5" height="5" rx="1" ry="1"/><rect class="cls-1" x="175" y="21.17" width="5" height="5" rx="1" ry="1"/><rect class="cls-1" x="180" y="16.17" width="5" height="5" rx="1" ry="1"/><rect class="cls-1" x="180" y="21.17" width="5" height="5" rx="1" ry="1"/><rect class="cls-1" x="90" y="21.17" width="5" height="5" rx="1" ry="1"/><rect class="cls-1" x="100" y="21.17" width="5" height="5" rx="1" ry="1"/><rect class="cls-1" x="145" y="11.17" width="5" height="5" rx="1" ry="1"/><rect class="cls-1" x="150" y="11.17" width="5" height="5" rx="1" ry="1"/><rect class="cls-1" x="145" y="6.17" width="5" height="5" rx="1" ry="1"/><rect class="cls-1" x="155" y="11.17" width="5" height="5" rx="1" ry="1"/><rect class="cls-1" x="145" y="16.17" width="5" height="5" rx="1" ry="1"/><rect class="cls-1" x="160" y="6.17" width="5" height="5" rx="1" ry="1"/><rect class="cls-1" x="145" y="21.17" width="5" height="5" rx="1" ry="1"/><rect class="cls-1" x="160" y="11.17" width="5" height="5" rx="1" ry="1"/><rect class="cls-1" x="160" y="16.17" width="5" height="5" rx="1" ry="1"/><rect class="cls-1" x="160" y="21.17" width="5" height="5" rx="1" ry="1"/><rect class="cls-1" x="110" y="16.17" width="5" height="5" rx="1" ry="1"/><rect class="cls-1" x="110" y="21.17" width="5" height="5" rx="1" ry="1"/><rect class="cls-1" x="235" y="11.17" width="5" height="5" rx="1" ry="1"/><rect class="cls-1" x="230" y="16.17" width="5" height="5" rx="1" ry="1"/><rect class="cls-1" x="230" y="21.17" width="5" height="5" rx="1" ry="1"/><rect class="cls-1" y="11.17" width="5" height="5" rx="1" ry="1"/><rect class="cls-1" y="16.17" width="5" height="5" rx="1" ry="1"/><rect class="cls-1" y="21.17" width="5" height="5" rx="1" ry="1"/></svg>