<?xml version="1.0" encoding="utf-8"?>
<!-- Generator: Adobe Illustrator 21.1.0, SVG Export Plug-In . SVG Version: 6.00 Build 0)  -->
<svg version="1.1" xmlns="http://www.w3.org/2000/svg" xmlns:xlink="http://www.w3.org/1999/xlink" x="0px" y="0px"
	 viewBox="0 0 40 40" style="enable-background:new 0 0 40 40;" xml:space="preserve">
<style type="text/css">
	.st0{display:none;}
	.st1{display:inline;fill:#6D6E71;}
	.st2{fill:url(#SVGID_1_);}
	.st3{fill:#FFFFFF;}
	.st4{fill:none;stroke:#FFFFFF;stroke-miterlimit:10;}
	.st5{fill:none;stroke:#999999;stroke-width:2;stroke-linecap:round;stroke-miterlimit:10;}
	.st6{fill:none;stroke:#FFFFFF;stroke-width:2;stroke-linecap:round;stroke-miterlimit:10;}
</style>
<g id="bg" class="st0">
	<rect transform="matrix(-1 -1.224647e-16 1.224647e-16 -1 40 40)" class="st1" width="40" height="40"/>
</g>
<g id="Layer_2">
</g>
<g id="Layer_1">
	<path class="st6" d="M15,9.9h10c2.8,0,5,2.2,5,5V21v4.9V28c0,5.5-4.5,10-10,10s-10-4.5-10-10v-2.1V21v-6.1C10,12.1,12.2,9.9,15,9.9
		z"/>
	<line class="st6" x1="20" y1="10" x2="20" y2="23"/>
	<path class="st3" d="M25,10c0,0,0.2,0,0.3,0c2.6,0,4.8,2.1,4.8,4.8c0,0.1,0,0.2,0,0.3h0v5H20v-4v-1v-5H25z"/>
	<line class="st6" x1="34" y1="13" x2="39" y2="13"/>
	<line class="st6" x1="31" y1="8" x2="35.4" y2="3.6"/>
	<line class="st6" x1="26" y1="6" x2="26" y2="1"/>
</g>
</svg>
