<?xml version="1.0" encoding="utf-8"?>
<!-- Generator: Adobe Illustrator 21.1.0, SVG Export Plug-In . SVG Version: 6.00 Build 0)  -->
<svg version="1.1" xmlns="http://www.w3.org/2000/svg" xmlns:xlink="http://www.w3.org/1999/xlink" x="0px" y="0px"
	 viewBox="0 0 800 30" style="enable-background:new 0 0 800 30;" xml:space="preserve">
<style type="text/css">
	.st0{display:none;}
	.st1{display:inline;fill:#27AAE1;}
	.st2{fill:#FFFFFF;}
	.st3{fill:none;stroke:#FFFFFF;stroke-miterlimit:10;}
</style>
<g id="Layer_2" class="st0">
	<rect class="st1" width="814" height="60"/>
</g>
<g id="Layer_1">
	<g>
		<path id="wordmark" class="st2" d="M598.6,18.1c0,2.1-1.8,4-4.2,4c-2.4,0-4.2-1.8-4.2-4v-7.7h-1.3v7.8c0,2.8,2.1,5.2,5.5,5.2
			c3.4,0,5.5-2.5,5.5-5.2v-7.8h-1.3V18.1z M612.5,10.3h-4.1v13h4.1c3.8,0,6.3-2.5,6.3-6.5C618.8,12.9,616.2,10.3,612.5,10.3z
			 M612.3,22h-2.7V11.6h2.7c3.1,0,5.1,2.1,5.1,5.2C617.5,20.1,615.5,22,612.3,22L612.3,22z M648.7,22c-3,0-5.1-2.5-5.1-5.5
			s2.1-5.3,5.1-5.3c2.3,0,3.8,1.4,3.8,1.4l0.6-0.9c0,0-1.5-1.6-4.5-1.6c-3.6,0-6.4,2.8-6.4,6.4s2.7,6.8,6.4,6.8
			c3.1,0,4.8-2.1,4.8-2.1l-0.7-0.8C652.7,20.3,651.2,22,648.7,22L648.7,22z M661.7,23.3h1.3v-13h-1.3V23.3z M670.1,11.6h4.5v11.7
			h1.3V11.6h4.6v-1.3h-10.4V11.6z M695.6,10.3l-4,5.8l-4.1-5.8h-1.4l4.9,7.2v5.8h1.3v-5.8l4.8-7.2H695.6z M629.8,10.3l-5.1,13h1.4
			l1.4-3.7l5.7-1.2l1.8,4.9h1.4l-5.1-13H629.8L629.8,10.3z M627.9,18.2l2.5-6.1h0.1l2.1,5.2L627.9,18.2z"/>
		<path id="mark" class="st2" d="M559.2,3.2l-8.6,5v11.4c0,5.3,4.2,9.6,9.5,9.6c1.8,0,3.4-0.5,4.8-1.2l7-4c2.8-1.5,4.7-4.4,4.7-7.7
			v-12l-1.7-1l-7.4,4v12.5c0,0.5-0.1,1-0.1,1.6c-0.1,0.5-0.3,1-0.5,1.4l-0.2,0.4c-0.3,0-1.9-0.6-2.7-1.2c-0.4-0.3-0.7-0.5-1-0.8
			c-0.3-0.3-0.6-0.6-0.8-1c-0.3-0.4-1.2-2.1-1.2-3.8V4.1L559.2,3.2z M563.4,26.7c-0.5,0.2-1.1,0.5-1.6,0.6c-0.5,0.1-1,0.1-1.5,0.1
			c-0.5,0-1-0.1-1.6-0.2c-0.5-0.1-1-0.3-1.4-0.5c-0.5-0.2-0.9-0.5-1.3-0.7c-1.1-0.8-1.6-1.4-2.1-2.1c-0.3-0.4-0.5-0.8-0.7-1.3
			s-0.3-1-0.5-1.5c-0.3-0.5-0.3-1-0.3-1.5V9.1l6.5-4v11c0,4.2,3.1,7.7,7,8.5c-0.1,0.2-0.3,0.4-0.5,0.5
			C564.8,25.9,564.2,26.4,563.4,26.7L563.4,26.7z M574.5,17.6c-0.1,0.5-0.3,0.9-0.4,1.3c-0.2,0.4-0.4,0.8-0.6,1.2
			c-0.3,0.4-1,1.4-2.1,1.9c-1,0.6-2,0.8-2.6,0.9c0.4-1,0.7-2.1,0.7-3.2V8.2l5.2-3v11C574.6,16.7,574.6,17.1,574.5,17.6z"/>
	</g>
	<g>
		<path class="st2" d="M9,11.2H6c-0.6,0-1-0.4-1-1v-3c0-0.6,0.4-1,1-1h3c0.6,0,1,0.4,1,1v3C10,10.7,9.6,11.2,9,11.2z"/>
		<path class="st2" d="M14,11.2h-3c-0.6,0-1-0.4-1-1v-3c0-0.6,0.4-1,1-1h3c0.6,0,1,0.4,1,1v3C15,10.7,14.6,11.2,14,11.2z"/>
		<path class="st2" d="M14,16.2h-3c-0.6,0-1-0.4-1-1v-3c0-0.6,0.4-1,1-1h3c0.6,0,1,0.4,1,1v3C15,15.7,14.6,16.2,14,16.2z"/>
		<path class="st2" d="M9,21.2H6c-0.6,0-1-0.4-1-1v-3c0-0.6,0.4-1,1-1h3c0.6,0,1,0.4,1,1v3C10,20.7,9.6,21.2,9,21.2z"/>
		<path class="st2" d="M24,21.2h-3c-0.6,0-1-0.4-1-1v-3c0-0.6,0.4-1,1-1h3c0.6,0,1,0.4,1,1v3C25,20.7,24.6,21.2,24,21.2z"/>
		<path class="st2" d="M24,16.2h-3c-0.6,0-1-0.4-1-1v-3c0-0.6,0.4-1,1-1h3c0.6,0,1,0.4,1,1v3C25,15.7,24.6,16.2,24,16.2z"/>
		<path class="st2" d="M24,26.2h-3c-0.6,0-1-0.4-1-1v-3c0-0.6,0.4-1,1-1h3c0.6,0,1,0.4,1,1v3C25,25.7,24.6,26.2,24,26.2z"/>
		<path class="st2" d="M74,21.2h-3c-0.6,0-1-0.4-1-1v-3c0-0.6,0.4-1,1-1h3c0.6,0,1,0.4,1,1v3C75,20.7,74.6,21.2,74,21.2z"/>
		<path class="st2" d="M74,16.2h-3c-0.6,0-1-0.4-1-1v-3c0-0.6,0.4-1,1-1h3c0.6,0,1,0.4,1,1v3C75,15.7,74.6,16.2,74,16.2z"/>
		<path class="st2" d="M74,11.2h-3c-0.6,0-1-0.4-1-1v-3c0-0.6,0.4-1,1-1h3c0.6,0,1,0.4,1,1v3C75,10.7,74.6,11.2,74,11.2z"/>
		<path class="st2" d="M79,26.2h-3c-0.6,0-1-0.4-1-1v-3c0-0.6,0.4-1,1-1h3c0.6,0,1,0.4,1,1v3C80,25.7,79.6,26.2,79,26.2z"/>
		<path class="st2" d="M129,21.2h-3c-0.6,0-1-0.4-1-1v-3c0-0.6,0.4-1,1-1h3c0.6,0,1,0.4,1,1v3C130,20.7,129.6,21.2,129,21.2z"/>
		<path class="st2" d="M129,16.2h-3c-0.6,0-1-0.4-1-1v-3c0-0.6,0.4-1,1-1h3c0.6,0,1,0.4,1,1v3C130,15.7,129.6,16.2,129,16.2z"/>
		<path class="st2" d="M134,16.2h-3c-0.6,0-1-0.4-1-1v-3c0-0.6,0.4-1,1-1h3c0.6,0,1,0.4,1,1v3C135,15.7,134.6,16.2,134,16.2z"/>
		<path class="st2" d="M129,11.2h-3c-0.6,0-1-0.4-1-1v-3c0-0.6,0.4-1,1-1h3c0.6,0,1,0.4,1,1v3C130,10.7,129.6,11.2,129,11.2z"/>
		<path class="st2" d="M134,26.2h-3c-0.6,0-1-0.4-1-1v-3c0-0.6,0.4-1,1-1h3c0.6,0,1,0.4,1,1v3C135,25.7,134.6,26.2,134,26.2z"/>
		<path class="st2" d="M39,21.2h-3c-0.6,0-1-0.4-1-1v-3c0-0.6,0.4-1,1-1h3c0.6,0,1,0.4,1,1v3C40,20.7,39.6,21.2,39,21.2z"/>
		<path class="st2" d="M34,16.2h-3c-0.6,0-1-0.4-1-1v-3c0-0.6,0.4-1,1-1h3c0.6,0,1,0.4,1,1v3C35,15.7,34.6,16.2,34,16.2z"/>
		<path class="st2" d="M34,26.2h-3c-0.6,0-1-0.4-1-1v-3c0-0.6,0.4-1,1-1h3c0.6,0,1,0.4,1,1v3C35,25.7,34.6,26.2,34,26.2z"/>
		<path class="st2" d="M44,16.2h-3c-0.6,0-1-0.4-1-1v-3c0-0.6,0.4-1,1-1h3c0.6,0,1,0.4,1,1v3C45,15.7,44.6,16.2,44,16.2z"/>
		<path class="st2" d="M44,26.2h-3c-0.6,0-1-0.4-1-1v-3c0-0.6,0.4-1,1-1h3c0.6,0,1,0.4,1,1v3C45,25.7,44.6,26.2,44,26.2z"/>
		<path class="st2" d="M199,21.2h-3c-0.6,0-1-0.4-1-1v-3c0-0.6,0.4-1,1-1h3c0.6,0,1,0.4,1,1v3C200,20.7,199.6,21.2,199,21.2z"/>
		<path class="st2" d="M194,16.2h-3c-0.6,0-1-0.4-1-1v-3c0-0.6,0.4-1,1-1h3c0.6,0,1,0.4,1,1v3C195,15.7,194.6,16.2,194,16.2z"/>
		<path class="st2" d="M194,11.2h-3c-0.6,0-1-0.4-1-1v-3c0-0.6,0.4-1,1-1h3c0.6,0,1,0.4,1,1v3C195,10.7,194.6,11.2,194,11.2z"/>
		<path class="st2" d="M194,21.2h-3c-0.6,0-1-0.4-1-1v-3c0-0.6,0.4-1,1-1h3c0.6,0,1,0.4,1,1v3C195,20.7,194.6,21.2,194,21.2z"/>
		<path class="st2" d="M194,26.2h-3c-0.6,0-1-0.4-1-1v-3c0-0.6,0.4-1,1-1h3c0.6,0,1,0.4,1,1v3C195,25.7,194.6,26.2,194,26.2z"/>
		<path class="st2" d="M204,16.2h-3c-0.6,0-1-0.4-1-1v-3c0-0.6,0.4-1,1-1h3c0.6,0,1,0.4,1,1v3C205,15.7,204.6,16.2,204,16.2z"/>
		<path class="st2" d="M204,26.2h-3c-0.6,0-1-0.4-1-1v-3c0-0.6,0.4-1,1-1h3c0.6,0,1,0.4,1,1v3C205,25.7,204.6,26.2,204,26.2z"/>
		<path class="st2" d="M54,21.2h-3c-0.6,0-1-0.4-1-1v-3c0-0.6,0.4-1,1-1h3c0.6,0,1,0.4,1,1v3C55,20.7,54.6,21.2,54,21.2z"/>
		<path class="st2" d="M59,16.2h-3c-0.6,0-1-0.4-1-1v-3c0-0.6,0.4-1,1-1h3c0.6,0,1,0.4,1,1v3C60,15.7,59.6,16.2,59,16.2z"/>
		<path class="st2" d="M64,16.2h-3c-0.6,0-1-0.4-1-1v-3c0-0.6,0.4-1,1-1h3c0.6,0,1,0.4,1,1v3C65,15.7,64.6,16.2,64,16.2z"/>
		<path class="st2" d="M59,26.2h-3c-0.6,0-1-0.4-1-1v-3c0-0.6,0.4-1,1-1h3c0.6,0,1,0.4,1,1v3C60,25.7,59.6,26.2,59,26.2z"/>
		<path class="st2" d="M64,26.2h-3c-0.6,0-1-0.4-1-1v-3c0-0.6,0.4-1,1-1h3c0.6,0,1,0.4,1,1v3C65,25.7,64.6,26.2,64,26.2z"/>
		<path class="st2" d="M214,21.2h-3c-0.6,0-1-0.4-1-1v-3c0-0.6,0.4-1,1-1h3c0.6,0,1,0.4,1,1v3C215,20.7,214.6,21.2,214,21.2z"/>
		<path class="st2" d="M219,16.2h-3c-0.6,0-1-0.4-1-1v-3c0-0.6,0.4-1,1-1h3c0.6,0,1,0.4,1,1v3C220,15.7,219.6,16.2,219,16.2z"/>
		<path class="st2" d="M224,16.2h-3c-0.6,0-1-0.4-1-1v-3c0-0.6,0.4-1,1-1h3c0.6,0,1,0.4,1,1v3C225,15.7,224.6,16.2,224,16.2z"/>
		<path class="st2" d="M219,26.2h-3c-0.6,0-1-0.4-1-1v-3c0-0.6,0.4-1,1-1h3c0.6,0,1,0.4,1,1v3C220,25.7,219.6,26.2,219,26.2z"/>
		<path class="st2" d="M224,26.2h-3c-0.6,0-1-0.4-1-1v-3c0-0.6,0.4-1,1-1h3c0.6,0,1,0.4,1,1v3C225,25.7,224.6,26.2,224,26.2z"/>
		<path class="st2" d="M94,16.2h-3c-0.6,0-1-0.4-1-1v-3c0-0.6,0.4-1,1-1h3c0.6,0,1,0.4,1,1v3C95,15.7,94.6,16.2,94,16.2z"/>
		<path class="st2" d="M99,11.2h-3c-0.6,0-1-0.4-1-1v-3c0-0.6,0.4-1,1-1h3c0.6,0,1,0.4,1,1v3C100,10.7,99.6,11.2,99,11.2z"/>
		<path class="st2" d="M99,21.2h-3c-0.6,0-1-0.4-1-1v-3c0-0.6,0.4-1,1-1h3c0.6,0,1,0.4,1,1v3C100,20.7,99.6,21.2,99,21.2z"/>
		<path class="st2" d="M119,16.2h-3c-0.6,0-1-0.4-1-1v-3c0-0.6,0.4-1,1-1h3c0.6,0,1,0.4,1,1v3C120,15.7,119.6,16.2,119,16.2z"/>
		<path class="st2" d="M104,16.2h-3c-0.6,0-1-0.4-1-1v-3c0-0.6,0.4-1,1-1h3c0.6,0,1,0.4,1,1v3C105,15.7,104.6,16.2,104,16.2z"/>
		<path class="st2" d="M94,21.2h-3c-0.6,0-1-0.4-1-1v-3c0-0.6,0.4-1,1-1h3c0.6,0,1,0.4,1,1v3C95,20.7,94.6,21.2,94,21.2z"/>
		<path class="st2" d="M104,21.2h-3c-0.6,0-1-0.4-1-1v-3c0-0.6,0.4-1,1-1h3c0.6,0,1,0.4,1,1v3C105,20.7,104.6,21.2,104,21.2z"/>
		<path class="st2" d="M174,21.2h-3c-0.6,0-1-0.4-1-1v-3c0-0.6,0.4-1,1-1h3c0.6,0,1,0.4,1,1v3C175,20.7,174.6,21.2,174,21.2z"/>
		<path class="st2" d="M179,16.2h-3c-0.6,0-1-0.4-1-1v-3c0-0.6,0.4-1,1-1h3c0.6,0,1,0.4,1,1v3C180,15.7,179.6,16.2,179,16.2z"/>
		<path class="st2" d="M179,26.2h-3c-0.6,0-1-0.4-1-1v-3c0-0.6,0.4-1,1-1h3c0.6,0,1,0.4,1,1v3C180,25.7,179.6,26.2,179,26.2z"/>
		<path class="st2" d="M184,21.2h-3c-0.6,0-1-0.4-1-1v-3c0-0.6,0.4-1,1-1h3c0.6,0,1,0.4,1,1v3C185,20.7,184.6,21.2,184,21.2z"/>
		<path class="st2" d="M184,26.2h-3c-0.6,0-1-0.4-1-1v-3c0-0.6,0.4-1,1-1h3c0.6,0,1,0.4,1,1v3C185,25.7,184.6,26.2,184,26.2z"/>
		<path class="st2" d="M94,26.2h-3c-0.6,0-1-0.4-1-1v-3c0-0.6,0.4-1,1-1h3c0.6,0,1,0.4,1,1v3C95,25.7,94.6,26.2,94,26.2z"/>
		<path class="st2" d="M104,26.2h-3c-0.6,0-1-0.4-1-1v-3c0-0.6,0.4-1,1-1h3c0.6,0,1,0.4,1,1v3C105,25.7,104.6,26.2,104,26.2z"/>
		<path class="st2" d="M149,16.2h-3c-0.6,0-1-0.4-1-1v-3c0-0.6,0.4-1,1-1h3c0.6,0,1,0.4,1,1v3C150,15.7,149.6,16.2,149,16.2z"/>
		<path class="st2" d="M154,16.2h-3c-0.6,0-1-0.4-1-1v-3c0-0.6,0.4-1,1-1h3c0.6,0,1,0.4,1,1v3C155,15.7,154.6,16.2,154,16.2z"/>
		<path class="st2" d="M149,11.2h-3c-0.6,0-1-0.4-1-1v-3c0-0.6,0.4-1,1-1h3c0.6,0,1,0.4,1,1v3C150,10.7,149.6,11.2,149,11.2z"/>
		<path class="st2" d="M159,16.2h-3c-0.6,0-1-0.4-1-1v-3c0-0.6,0.4-1,1-1h3c0.6,0,1,0.4,1,1v3C160,15.7,159.6,16.2,159,16.2z"/>
		<path class="st2" d="M149,21.2h-3c-0.6,0-1-0.4-1-1v-3c0-0.6,0.4-1,1-1h3c0.6,0,1,0.4,1,1v3C150,20.7,149.6,21.2,149,21.2z"/>
		<path class="st2" d="M164,11.2h-3c-0.6,0-1-0.4-1-1v-3c0-0.6,0.4-1,1-1h3c0.6,0,1,0.4,1,1v3C165,10.7,164.6,11.2,164,11.2z"/>
		<path class="st2" d="M149,26.2h-3c-0.6,0-1-0.4-1-1v-3c0-0.6,0.4-1,1-1h3c0.6,0,1,0.4,1,1v3C150,25.7,149.6,26.2,149,26.2z"/>
		<path class="st2" d="M164,16.2h-3c-0.6,0-1-0.4-1-1v-3c0-0.6,0.4-1,1-1h3c0.6,0,1,0.4,1,1v3C165,15.7,164.6,16.2,164,16.2z"/>
		<path class="st2" d="M164,21.2h-3c-0.6,0-1-0.4-1-1v-3c0-0.6,0.4-1,1-1h3c0.6,0,1,0.4,1,1v3C165,20.7,164.6,21.2,164,21.2z"/>
		<path class="st2" d="M164,26.2h-3c-0.6,0-1-0.4-1-1v-3c0-0.6,0.4-1,1-1h3c0.6,0,1,0.4,1,1v3C165,25.7,164.6,26.2,164,26.2z"/>
		<path class="st2" d="M114,21.2h-3c-0.6,0-1-0.4-1-1v-3c0-0.6,0.4-1,1-1h3c0.6,0,1,0.4,1,1v3C115,20.7,114.6,21.2,114,21.2z"/>
		<path class="st2" d="M114,26.2h-3c-0.6,0-1-0.4-1-1v-3c0-0.6,0.4-1,1-1h3c0.6,0,1,0.4,1,1v3C115,25.7,114.6,26.2,114,26.2z"/>
		<path class="st2" d="M239,16.2h-3c-0.6,0-1-0.4-1-1v-3c0-0.6,0.4-1,1-1h3c0.6,0,1,0.4,1,1v3C240,15.7,239.6,16.2,239,16.2z"/>
		<path class="st2" d="M234,21.2h-3c-0.6,0-1-0.4-1-1v-3c0-0.6,0.4-1,1-1h3c0.6,0,1,0.4,1,1v3C235,20.7,234.6,21.2,234,21.2z"/>
		<path class="st2" d="M234,26.2h-3c-0.6,0-1-0.4-1-1v-3c0-0.6,0.4-1,1-1h3c0.6,0,1,0.4,1,1v3C235,25.7,234.6,26.2,234,26.2z"/>
		<path class="st2" d="M4,16.2H1c-0.6,0-1-0.4-1-1l0-3c0-0.6,0.4-1,1-1h3c0.6,0,1,0.4,1,1v3C5,15.7,4.6,16.2,4,16.2z"/>
		<path class="st2" d="M4,21.2H1c-0.6,0-1-0.4-1-1l0-3c0-0.6,0.4-1,1-1h3c0.6,0,1,0.4,1,1v3C5,20.7,4.6,21.2,4,21.2z"/>
		<path class="st2" d="M4,26.2H1c-0.6,0-1-0.4-1-1l0-3c0-0.6,0.4-1,1-1h3c0.6,0,1,0.4,1,1v3C5,25.7,4.6,26.2,4,26.2z"/>
	</g>
	<g>
		<polygon class="st2" points="-107.5,1045.4 -124.5,1045.4 -137.1,1060.4 -152.5,1078.7 -167.8,1060.4 -180.4,1045.4 
			-197.4,1045.4 -197.4,1045.4 -197.4,1135.3 -182.4,1135.3 -182.4,1066.3 -152.5,1102 -122.5,1066.3 -122.5,1135.3 -107.5,1135.3 
					"/>
		<polygon class="st2" points="-212.3,1045.4 -287.2,1045.4 -287.2,1060.4 -257.3,1060.4 -257.3,1135.3 -242.3,1135.3 
			-242.3,1060.4 -212.3,1060.4 		"/>
		<g>
			<g>
				<path class="st2" d="M-465.9,1045.4V1181c-12.7-9.9-28.6-15.8-45.9-15.8c-41.4,0-74.9,33.5-74.9,74.9s33.5,74.9,74.9,74.9
					s74.9-33.5,74.9-74.9v-194.7H-465.9z M-511.9,1285c-24.8,0-44.9-20.1-44.9-44.9s20.1-44.9,44.9-44.9c24.8,0,44.9,20.1,44.9,44.9
					S-487.1,1285-511.9,1285z"/>
				<rect x="-377.1" y="1045.4" class="st2" width="15" height="269.6"/>
				<rect x="-661.6" y="1045.4" class="st2" width="15" height="269.6"/>
			</g>
			<rect x="-546.3" y="1222.6" class="st2" width="69.9" height="2.5"/>
		</g>
	</g>
	<g>
		<polygon class="st2" points="750.8,1045 729.6,1045 692.1,1082.5 687.7,1082.5 687.7,1045 672.8,1045 672.8,1134.9 687.7,1134.9 
			687.7,1097.5 692.1,1097.5 729.6,1134.9 750.8,1134.9 705.8,1090 		"/>
		<path class="st2" d="M358,1045.1c-24.8,0-44.9,20.1-44.9,44.9c0,24.8,20.1,44.9,44.9,44.9c24.8,0,44.9-20.1,44.9-44.9
			C403,1065.2,382.9,1045.1,358,1045.1z M358,1120c-16.5,0-30-13.4-30-30c0-16.5,13.4-30,30-30c16.5,0,30,13.4,30,30
			C388,1106.6,374.6,1120,358,1120z"/>
		<rect x="522.9" y="1045.1" class="st2" width="15" height="89.9"/>
		<rect x="642.5" y="1045.1" class="st2" width="15" height="89.9"/>
		<path class="st2" d="M305.6,1090.1c0-24.8-20.1-44.9-44.9-44.9v0l-37.5,0v0v89.9v0h37.5v0C285.5,1135,305.6,1114.9,305.6,1090.1z
			 M260.7,1120L260.7,1120l-22.6,0v-59.9h22.6v0c16.5,0,30,13.4,30,30C290.6,1106.6,277.2,1120,260.7,1120z"/>
		<polygon class="st2" points="612.8,1045.1 612.8,1105.1 562.4,1045.1 552.9,1045.1 552.9,1135 567.9,1135 567.9,1074.9 
			618.3,1135 627.8,1135 627.8,1045.1 		"/>
		<polygon class="st2" points="508,1045.1 490.9,1045.1 478.4,1060.1 463,1078.4 447.6,1060.1 435.1,1045.1 418.1,1045.1 
			418.1,1045.1 418.1,1135 433,1135 433,1066 463,1101.7 493,1066 493,1135 507.9,1135 		"/>
	</g>
	<g>
		<polygon class="st2" points="836.4,1240.4 836.4,1225.4 791.5,1225.4 791.5,1225.4 776.6,1225.4 776.6,1315.1 776.6,1315.1 
			776.6,1315.1 836.4,1315.1 836.4,1300.2 791.5,1300.2 791.5,1277.7 821.4,1277.7 821.4,1262.8 791.5,1262.8 791.5,1240.4 		"/>
		<polygon class="st2" points="417.6,1240.2 417.6,1225.3 372.8,1225.3 372.8,1225.3 357.8,1225.3 357.8,1315 357.8,1315 
			357.8,1315 417.6,1315 417.6,1300 372.8,1300 372.8,1277.6 402.7,1277.6 402.7,1262.6 372.8,1262.6 372.8,1240.2 		"/>
		<polygon class="st2" points="301.1,1225.3 279.9,1225.3 242.5,1262.6 238.2,1262.6 238.2,1225.3 223.2,1225.3 223.2,1315 
			238.2,1315 238.2,1277.6 242.5,1277.6 279.9,1315 301.1,1315 256.2,1270.1 		"/>
		<polygon class="st2" points="761.6,1225.4 686.9,1225.4 686.9,1240.4 743.6,1240.4 686.9,1297 686.9,1315.1 761.6,1315.1 
			761.6,1300.2 704.9,1300.2 761.6,1243.4 		"/>
		<rect x="320.4" y="1225.3" class="st2" width="14.9" height="89.7"/>
		<polygon class="st2" points="1130.9,1225.3 1109.8,1225.3 1072.4,1262.7 1068,1262.7 1068,1225.3 1053,1225.3 1053,1315 
			1068,1315 1068,1277.6 1072.4,1277.6 1109.8,1315 1130.9,1315 1086,1270.2 		"/>
		<rect x="1150.4" y="1225.1" class="st2" width="14.9" height="89.7"/>
		<path class="st2" d="M477.5,1225.4h-44.9v89.7h15v-29.9h29.9c16.5,0,29.9-13.4,29.9-29.9S494,1225.4,477.5,1225.4z M477.5,1270.2
			h-29.9v-29.9h29.9c8.3,0,15,6.7,15,15C492.4,1263.5,485.8,1270.2,477.5,1270.2z"/>
		<path class="st2" d="M589.7,1276.7v-51.4h-15v52.3c0,12.4-10,22.5-22.4,22.5s-22.4-10.1-22.4-22.5v-52.3h-15v52.3h0
			c0,20.6,16.7,37.4,37.4,37.4s37.4-16.7,37.4-37.4C589.7,1277.4,589.7,1277,589.7,1276.7z"/>
		<g>
			<g>
				<path class="st2" d="M635.1,1315.1c-19,0-31.2-6.3-37.2-19.2l13.5-6.3c2.3,4.9,7.1,10.6,23.7,10.6c3.7,0,21.9-0.6,21.9-11.9
					c0-5.1-1.6-9.8-21.5-11.9c-10.5-1-35.3-3.5-35.3-25.8c0-14.9,14.3-25,35.6-25.2c21.3,0,30.8,8.6,35,15.7l-12.9,7.6
					c-4.1-6.9-14.3-8.4-22.1-8.4c-8.3,0.1-20.7,2.8-20.7,10.2c0,4.2,1.7,8.9,21.8,10.9c10.5,1.1,34.9,3.7,34.9,26.8
					C671.9,1304.6,657.4,1315.1,635.1,1315.1z"/>
			</g>
		</g>
		<g>
			<g>
				<path class="st2" d="M1001.1,1315.1c-19,0-31.2-6.3-37.2-19.2l13.5-6.3c2.3,4.9,7.1,10.6,23.7,10.6c3.7,0,21.9-0.6,21.9-11.9
					c0-5.1-1.6-9.8-21.5-11.9c-10.5-1-35.3-3.5-35.3-25.8c0-14.9,14.3-25,35.6-25.2c21.3,0,30.8,8.6,35,15.7l-12.9,7.6
					c-4.1-6.9-14.3-8.4-22.1-8.4c-8.3,0.1-20.7,2.8-20.7,10.2c0,4.2,1.7,8.9,21.8,10.9c10.5,1.1,34.9,3.7,34.9,26.8
					C1037.9,1304.6,1023.5,1315.1,1001.1,1315.1z"/>
			</g>
		</g>
		<polygon class="st2" points="945.8,1225.4 926.1,1279.5 906.4,1225.4 900.9,1225.4 881.3,1279.5 861.6,1225.4 846.5,1225.4 
			879.2,1315.1 883.3,1315.1 903.7,1259.2 924,1315.1 928.2,1315.1 960.8,1225.4 		"/>
	</g>
	<rect x="-46.8" y="1172.5" class="st2" width="180" height="15"/>
	<g>
		<g>
			<path class="st2" d="M1798,1045c24.8,0,45,20.2,45,45s-20.2,45-45,45s-45-20.2-45-45S1773.2,1045,1798,1045 M1798,1030
				c-33.1,0-60,26.9-60,60c0,33.1,26.9,60,60,60c33.1,0,60-26.9,60-60C1858,1056.9,1831.1,1030,1798,1030L1798,1030z"/>
			<path class="st2" d="M1798,1105c-8.3,0-15-6.7-15-15c0-8.3,6.7-15,15-15c4.1,0,7.9,1.7,10.6,4.4l10.6-10.6
				c-5.4-5.4-12.9-8.8-21.2-8.8c-16.6,0-30,13.4-30,30s13.4,30,30,30c8.3,0,15.8-3.4,21.2-8.8l-10.6-10.6
				C1805.9,1103.3,1802.1,1105,1798,1105z"/>
		</g>
		<g>
			<polygon class="st2" points="1978.2,1045 1961.2,1045 1948.6,1060 1933.2,1078.3 1917.8,1060 1905.2,1045 1888.2,1045 
				1888.2,1045 1888.2,1135 1903.2,1135 1903.2,1065.9 1933.2,1101.7 1963.2,1065.9 1963.2,1135 1978.2,1135 			"/>
			<polygon class="st2" points="2083.2,1045 2066.2,1045 2053.6,1060 2038.2,1078.3 2022.8,1060 2010.2,1045 1993.2,1045 
				1993.2,1045 1993.2,1135 2008.2,1135 2008.2,1065.9 2038.2,1101.7 2068.2,1065.9 2068.2,1135 2083.2,1135 			"/>
			<polygon class="st2" points="2136.4,1089.9 2162.4,1045 2146,1045 2128.2,1075.8 2110.4,1045 2094.1,1045 2120,1089.9 2094,1135 
				2110.4,1135 2128.2,1104.1 2146.1,1135 2162.4,1135 			"/>
			<polygon class="st2" points="2223,1045 2203.2,1099.3 2183.5,1045 2168.4,1045 2195.7,1120 2201.1,1134.9 2205.3,1134.9 
				2210.8,1120 2238.1,1045 			"/>
			<rect x="2248.2" y="1045" class="st2" width="15" height="90"/>
			<rect x="2278.2" y="1045" class="st2" width="15" height="90"/>
			<rect x="2308.2" y="1045" class="st2" width="15" height="90"/>
		</g>
	</g>
	<rect x="1618.2" y="1045" class="st2" width="15" height="270"/>
	<g>
		<g>
			<polygon class="st2" points="368.2,3.2 366.6,3.2 365.4,4.6 363.9,6.4 362.4,4.6 361.2,3.2 359.6,3.2 359.6,3.2 359.6,11.9 
				361,11.9 361,5.2 363.9,8.7 366.8,5.2 366.8,11.9 368.2,11.9 			"/>
			<polygon class="st2" points="358.2,3.2 350.9,3.2 350.9,4.6 353.8,4.6 353.8,11.9 355.3,11.9 355.3,4.6 358.2,4.6 			"/>
			<g>
				<g>
					<path class="st2" d="M333.7,3.2v13c-1.2-1-2.8-1.5-4.4-1.5c-4,0-7.2,3.2-7.2,7.2c0,4,3.2,7.2,7.2,7.2c4,0,7.2-3.2,7.2-7.2V3.2
						H333.7z M329.3,26.3c-2.4,0-4.3-1.9-4.3-4.3c0-2.4,1.9-4.3,4.3-4.3c2.4,0,4.3,1.9,4.3,4.3C333.6,24.3,331.7,26.3,329.3,26.3z"
						/>
					<rect x="342.3" y="3.2" class="st2" width="1.4" height="25.9"/>
					<rect x="314.9" y="3.2" class="st2" width="1.4" height="25.9"/>
				</g>
				<rect x="326" y="20.3" class="st2" width="6.7" height="0.2"/>
			</g>
		</g>
		<g>
			<polygon class="st2" points="450.9,3.2 448.8,3.2 445.2,6.8 444.8,6.8 444.8,3.2 443.3,3.2 443.3,11.8 444.8,11.8 444.8,8.2 
				445.2,8.2 448.8,11.8 450.9,11.8 446.5,7.5 			"/>
			<path class="st2" d="M413.1,3.2c-2.4,0-4.3,1.9-4.3,4.3c0,2.4,1.9,4.3,4.3,4.3s4.3-1.9,4.3-4.3C417.4,5.1,415.4,3.2,413.1,3.2z
				 M413.1,10.4c-1.6,0-2.9-1.3-2.9-2.9s1.3-2.9,2.9-2.9s2.9,1.3,2.9,2.9S414.6,10.4,413.1,10.4z"/>
			<rect x="428.9" y="3.2" class="st2" width="1.4" height="8.7"/>
			<rect x="440.4" y="3.2" class="st2" width="1.4" height="8.7"/>
			<path class="st2" d="M408,7.5c0-2.4-1.9-4.3-4.3-4.3v0l-3.6,0v0v8.7v0h3.6v0C406.1,11.8,408,9.9,408,7.5z M403.7,10.4L403.7,10.4
				l-2.2,0V4.6h2.2v0c1.6,0,2.9,1.3,2.9,2.9C406.6,9.1,405.3,10.4,403.7,10.4z"/>
			<polygon class="st2" points="437.6,3.2 437.6,9 432.7,3.2 431.8,3.2 431.8,11.8 433.3,11.8 433.3,6 438.1,11.8 439,11.8 439,3.2 
							"/>
			<polygon class="st2" points="427.5,3.2 425.8,3.2 424.6,4.6 423.2,6.4 421.7,4.6 420.5,3.2 418.8,3.2 418.8,3.2 418.8,11.8 
				420.3,11.8 420.3,5.2 423.2,8.6 426,5.2 426,11.8 427.5,11.8 			"/>
		</g>
		<g>
			<polygon class="st2" points="459.1,22 459.1,20.5 454.8,20.5 454.8,20.5 453.3,20.5 453.3,29.2 453.3,29.2 453.3,29.2 
				459.1,29.2 459.1,27.7 454.8,27.7 454.8,25.6 457.7,25.6 457.7,24.1 454.8,24.1 454.8,22 			"/>
			<polygon class="st2" points="418.8,22 418.8,20.5 414.5,20.5 414.5,20.5 413,20.5 413,29.2 413,29.2 413,29.2 418.8,29.2 
				418.8,27.7 414.5,27.7 414.5,25.6 417.3,25.6 417.3,24.1 414.5,24.1 414.5,22 			"/>
			<polygon class="st2" points="407.6,20.5 405.5,20.5 401.9,24.1 401.5,24.1 401.5,20.5 400.1,20.5 400.1,29.2 401.5,29.2 
				401.5,25.6 401.9,25.6 405.5,29.2 407.6,29.2 403.3,24.8 			"/>
			<polygon class="st2" points="451.9,20.5 444.7,20.5 444.7,22 450.2,22 444.7,27.4 444.7,29.2 451.9,29.2 451.9,27.7 446.4,27.7 
				451.9,22.3 			"/>
			<rect x="409.4" y="20.5" class="st2" width="1.4" height="8.6"/>
			<polygon class="st2" points="487.4,20.5 485.4,20.5 481.8,24.1 481.4,24.1 481.4,20.5 479.9,20.5 479.9,29.2 481.4,29.2 
				481.4,25.6 481.8,25.6 485.4,29.2 487.4,29.2 483.1,24.8 			"/>
			<rect x="489.3" y="20.5" class="st2" width="1.4" height="8.6"/>
			<path class="st2" d="M424.5,20.5h-4.3v8.6h1.4v-2.9h2.9c1.6,0,2.9-1.3,2.9-2.9S426.1,20.5,424.5,20.5z M424.5,24.8h-2.9V22h2.9
				c0.8,0,1.4,0.6,1.4,1.4C426,24.2,425.3,24.8,424.5,24.8z"/>
			<path class="st2" d="M435.3,25.5v-4.9h-1.4v5c0,1.2-1,2.2-2.2,2.2c-1.2,0-2.2-1-2.2-2.2v-5h-1.4v5h0c0,2,1.6,3.6,3.6,3.6
				C433.7,29.2,435.3,27.5,435.3,25.5C435.3,25.5,435.3,25.5,435.3,25.5z"/>
			<g>
				<g>
					<path class="st2" d="M439.7,29.2c-1.8,0-3-0.6-3.6-1.9l1.3-0.6c0.2,0.5,0.7,1,2.3,1c0.4,0,2.1-0.1,2.1-1.1
						c0-0.5-0.2-0.9-2.1-1.1c-1-0.1-3.4-0.3-3.4-2.5c0-1.4,1.4-2.4,3.4-2.4c2,0,3,0.8,3.4,1.5l-1.2,0.7c-0.4-0.7-1.4-0.8-2.1-0.8
						c-0.8,0-2,0.3-2,1c0,0.4,0.2,0.9,2.1,1.1c1,0.1,3.4,0.4,3.4,2.6C443.3,28.2,441.9,29.2,439.7,29.2z"/>
				</g>
			</g>
			<g>
				<g>
					<path class="st2" d="M474.9,29.2c-1.8,0-3-0.6-3.6-1.9l1.3-0.6c0.2,0.5,0.7,1,2.3,1c0.4,0,2.1-0.1,2.1-1.1
						c0-0.5-0.2-0.9-2.1-1.1c-1-0.1-3.4-0.3-3.4-2.5c0-1.4,1.4-2.4,3.4-2.4c2,0,3,0.8,3.4,1.5l-1.2,0.7c-0.4-0.7-1.4-0.8-2.1-0.8
						c-0.8,0-2,0.3-2,1c0,0.4,0.2,0.9,2.1,1.1c1,0.1,3.4,0.4,3.4,2.6C478.5,28.2,477.1,29.2,474.9,29.2z"/>
				</g>
			</g>
			<polygon class="st2" points="469.6,20.5 467.7,25.7 465.8,20.5 465.3,20.5 463.4,25.7 461.5,20.5 460.1,20.5 463.2,29.2 
				463.6,29.2 465.6,23.8 467.5,29.2 467.9,29.2 471.1,20.5 			"/>
		</g>
		<rect x="374.1" y="15.4" class="st2" width="17.3" height="1.4"/>
	</g>
	<g>
		<g>
			<path class="st2" d="M748.3,1.7c2.4,0,4.4,2,4.4,4.5s-2,4.5-4.4,4.5c-2.4,0-4.4-2-4.4-4.5S745.9,1.7,748.3,1.7 M748.3,0.2
				c-3.3,0-5.9,2.7-5.9,6c0,3.3,2.6,6,5.9,6c3.3,0,5.9-2.7,5.9-6C754.2,2.9,751.6,0.2,748.3,0.2L748.3,0.2z"/>
			<path class="st2" d="M748.3,7.7c-0.8,0-1.5-0.7-1.5-1.5c0-0.8,0.7-1.5,1.5-1.5c0.4,0,0.8,0.2,1,0.4l1-1.1
				c-0.5-0.5-1.3-0.9-2.1-0.9c-1.6,0-2.9,1.3-2.9,3s1.3,3,2.9,3c0.8,0,1.5-0.3,2.1-0.9l-1-1.1C749.1,7.5,748.7,7.7,748.3,7.7z"/>
		</g>
		<g>
			<polygon class="st2" points="766,1.7 764.3,1.7 763.1,3.2 761.6,5 760.1,3.2 758.9,1.7 757.2,1.7 757.2,1.7 757.2,10.7 
				758.7,10.7 758.7,3.8 761.6,7.3 764.5,3.8 764.5,10.7 766,10.7 			"/>
			<polygon class="st2" points="776.3,1.7 774.6,1.7 773.4,3.2 771.9,5 770.4,3.2 769.2,1.7 767.5,1.7 767.5,1.7 767.5,10.7 
				769,10.7 769,3.8 771.9,7.3 774.8,3.8 774.8,10.7 776.3,10.7 			"/>
			<polygon class="st2" points="781.5,6.2 784.1,1.7 782.5,1.7 780.7,4.8 779,1.7 777.4,1.7 779.9,6.2 777.4,10.7 779,10.7 
				780.7,7.6 782.5,10.7 784.1,10.7 			"/>
			<polygon class="st2" points="790,1.7 788.1,7.1 786.1,1.7 784.7,1.7 787.3,9.2 787.9,10.7 788.3,10.7 788.8,9.2 791.5,1.7 			"/>
			<rect x="792.5" y="1.7" class="st2" width="1.5" height="9"/>
			<rect x="795.4" y="1.7" class="st2" width="1.5" height="9"/>
			<rect x="798.4" y="1.7" class="st2" width="1.5" height="9"/>
		</g>
		<rect x="725.3" y="3.2" class="st2" width="1.4" height="26"/>
	</g>
	<g>
		<line class="st3" x1="515.1" y1="6.2" x2="534.8" y2="26.2"/>
		<line class="st3" x1="535.1" y1="6.2" x2="515.1" y2="26.2"/>
	</g>
</g>
</svg>
