<?xml version="1.0" encoding="utf-8"?>
<!-- Generator: Adobe Illustrator 21.1.0, SVG Export Plug-In . SVG Version: 6.00 Build 0)  -->
<svg version="1.1" xmlns="http://www.w3.org/2000/svg" xmlns:xlink="http://www.w3.org/1999/xlink" x="0px" y="0px"
	 viewBox="0 0 60 60" style="enable-background:new 0 0 60 60;" xml:space="preserve">
<style type="text/css">
	.st0{display:none;}
	.st1{display:inline;fill:#6D6E71;}
	.st2{fill:url(#SVGID_1_);}
	.st3{fill:none;stroke:#FFFFFF;stroke-width:2;stroke-linecap:round;stroke-miterlimit:10;}
	.st4{fill:#FFFFFF;}
	.st5{fill:none;stroke:#FFFFFF;stroke-miterlimit:10;}
	.st6{fill:none;stroke:#999999;stroke-width:2;stroke-linecap:round;stroke-miterlimit:10;}
</style>
<g id="bg" class="st0">
	<rect class="st1" width="60" height="60"/>
</g>
<g id="Layer_2">
	<path class="st3" d="M40,22v21c0,1.7-1.3,3-3,3H23c-1.7,0-3-1.3-3-3V22"/>
	<path class="st3" d="M41.5,22h-23c-0.8,0-1.5-0.7-1.5-1.5v-1c0-0.8,0.7-1.5,1.5-1.5h23c0.8,0,1.5,0.7,1.5,1.5v1
		C43,21.3,42.3,22,41.5,22z"/>
	<line class="st3" x1="36" y1="25" x2="36" y2="42"/>
	<line class="st3" x1="28" y1="25" x2="28" y2="42"/>
	<line class="st3" x1="32" y1="25" x2="32" y2="42"/>
	<line class="st3" x1="24" y1="25" x2="24" y2="42"/>
	<path class="st3" d="M33,18v-1c0-1.1-0.9-2-2-2h-2c-1.1,0-2,0.9-2,2v1"/>
</g>
<g id="Layer_1">
</g>
</svg>
