<?xml version="1.0" encoding="utf-8"?>
<!-- Generator: Adobe Illustrator 21.1.0, SVG Export Plug-In . SVG Version: 6.00 Build 0)  -->
<svg version="1.1" xmlns="http://www.w3.org/2000/svg" xmlns:xlink="http://www.w3.org/1999/xlink" x="0px" y="0px"
	 viewBox="0 0 24 24" style="enable-background:new 0 0 24 24;" xml:space="preserve">
<style type="text/css">
	.st0{fill:#FFFFFF;stroke:#231F20;stroke-width:4;stroke-miterlimit:10;}
</style>
<g id="Layer_1">
	<rect x="-58.8" y="5" class="st0" width="30" height="40"/>
</g>
<g id="Layer_2">
	<g>
		<path d="M20,1.4L22.6,4l-19,19H1v-2.6L20,1.4 M20,0L0,20v4h4L24,4L20,0L20,0z"/>
		<g>
			<rect x="18.5" y="2.9" transform="matrix(0.7071 -0.7071 0.7071 0.7071 2.0295 14.8997)" width="1" height="4.2"/>
		</g>
		<g>
			<rect x="17.1" y="4.3" transform="matrix(0.7071 -0.7071 0.7071 0.7071 0.6233 14.3172)" width="1" height="4.2"/>
		</g>
	</g>
	<g>
		<path d="M48,22.6L45.4,20l19-19H67v2.6L48,22.6 M48,24L68,4V0h-4L44,20L48,24L48,24z"/>
		<g>
			<rect x="48.5" y="16.9" transform="matrix(0.7071 -0.7071 0.7071 0.7071 0.9167 40.213)" width="1" height="4.2"/>
		</g>
		<g>
			<rect x="49.9" y="15.5" transform="matrix(0.7071 -0.7071 0.7071 0.7071 2.3229 40.7955)" width="1" height="4.2"/>
		</g>
	</g>
</g>
</svg>
